<mxfile host="app.diagrams.net" modified="2023-12-10T09:42:15.322Z" agent="Mozilla/5.0 (Windows NT 10.0; Win64; x64) AppleWebKit/537.36 (KHTML, like Gecko) Chrome/120.0.0.0 Safari/537.36" etag="OJvGYPc_B984MV5hXfsB" version="22.1.7" type="github">
  <diagram name="第 1 页" id="Molag10bkx70gF2NzAc1">
    <mxGraphModel dx="976" dy="459" grid="1" gridSize="10" guides="1" tooltips="1" connect="1" arrows="1" fold="1" page="1" pageScale="1" pageWidth="1169" pageHeight="827" math="0" shadow="0">
      <root>
        <mxCell id="0" />
        <mxCell id="1" parent="0" />
        <mxCell id="ViMQYmPjHWnvlr-54FI5-1" value="" style="rounded=0;whiteSpace=wrap;html=1;fillColor=#dae8fc;strokeColor=#6c8ebf;" parent="1" vertex="1">
          <mxGeometry x="270" y="220" width="310" height="40" as="geometry" />
        </mxCell>
        <mxCell id="ViMQYmPjHWnvlr-54FI5-3" value="&lt;font face=&quot;Comic Sans MS&quot;&gt;individual 1&lt;/font&gt;" style="text;html=1;align=center;verticalAlign=middle;resizable=0;points=[];autosize=1;strokeColor=none;fillColor=none;" parent="1" vertex="1">
          <mxGeometry x="190" y="225" width="80" height="30" as="geometry" />
        </mxCell>
        <mxCell id="ViMQYmPjHWnvlr-54FI5-4" value="&lt;font style=&quot;font-size: 9px;&quot; face=&quot;Comic Sans MS&quot;&gt;I&lt;sub&gt;1&lt;/sub&gt;&lt;/font&gt;" style="whiteSpace=wrap;html=1;aspect=fixed;fillColor=#1ba1e2;fontColor=#ffffff;strokeColor=#006EAF;" parent="1" vertex="1">
          <mxGeometry x="280" y="230" width="20" height="20" as="geometry" />
        </mxCell>
        <mxCell id="ViMQYmPjHWnvlr-54FI5-7" value="" style="endArrow=none;dashed=1;html=1;dashPattern=1 3;strokeWidth=2;rounded=0;" parent="1" edge="1">
          <mxGeometry width="50" height="50" relative="1" as="geometry">
            <mxPoint x="340" y="239.8" as="sourcePoint" />
            <mxPoint x="360" y="239.8" as="targetPoint" />
          </mxGeometry>
        </mxCell>
        <mxCell id="ViMQYmPjHWnvlr-54FI5-15" value="" style="endArrow=none;dashed=1;html=1;dashPattern=1 3;strokeWidth=2;rounded=0;" parent="1" edge="1">
          <mxGeometry width="50" height="50" relative="1" as="geometry">
            <mxPoint x="521" y="239.88000000000002" as="sourcePoint" />
            <mxPoint x="541" y="239.88000000000002" as="targetPoint" />
          </mxGeometry>
        </mxCell>
        <mxCell id="ViMQYmPjHWnvlr-54FI5-19" value="&lt;font face=&quot;Comic Sans MS&quot;&gt;individual 2&lt;/font&gt;" style="text;html=1;align=center;verticalAlign=middle;resizable=0;points=[];autosize=1;strokeColor=none;fillColor=none;" parent="1" vertex="1">
          <mxGeometry x="185" y="285" width="90" height="30" as="geometry" />
        </mxCell>
        <mxCell id="ViMQYmPjHWnvlr-54FI5-33" value="&lt;font face=&quot;Comic Sans MS&quot;&gt;start point&lt;/font&gt;" style="text;html=1;align=center;verticalAlign=middle;resizable=0;points=[];autosize=1;strokeColor=none;fillColor=none;" parent="1" vertex="1">
          <mxGeometry x="337" y="190" width="80" height="30" as="geometry" />
        </mxCell>
        <mxCell id="ViMQYmPjHWnvlr-54FI5-34" value="" style="endArrow=classic;html=1;rounded=0;exitX=0.076;exitY=0.066;exitDx=0;exitDy=0;exitPerimeter=0;" parent="1" edge="1">
          <mxGeometry width="50" height="50" relative="1" as="geometry">
            <mxPoint x="409.7899999999999" y="191.97999999999996" as="sourcePoint" />
            <mxPoint x="409.71" y="230" as="targetPoint" />
          </mxGeometry>
        </mxCell>
        <mxCell id="ViMQYmPjHWnvlr-54FI5-35" value="" style="shape=flexArrow;endArrow=classic;html=1;rounded=0;" parent="1" edge="1">
          <mxGeometry width="50" height="50" relative="1" as="geometry">
            <mxPoint x="425" y="330" as="sourcePoint" />
            <mxPoint x="425" y="380" as="targetPoint" />
          </mxGeometry>
        </mxCell>
        <mxCell id="ViMQYmPjHWnvlr-54FI5-36" value="&lt;font face=&quot;Comic Sans MS&quot;&gt;&lt;b&gt;crossover&lt;/b&gt;&lt;/font&gt;" style="text;html=1;align=center;verticalAlign=middle;resizable=0;points=[];autosize=1;strokeColor=none;fillColor=none;" parent="1" vertex="1">
          <mxGeometry x="425" y="330" width="80" height="30" as="geometry" />
        </mxCell>
        <mxCell id="ViMQYmPjHWnvlr-54FI5-83" value="&lt;font style=&quot;font-size: 9px;&quot; face=&quot;Comic Sans MS&quot;&gt;I&lt;sub&gt;2&lt;/sub&gt;&lt;/font&gt;" style="whiteSpace=wrap;html=1;aspect=fixed;fillColor=#1ba1e2;fontColor=#ffffff;strokeColor=#006EAF;" parent="1" vertex="1">
          <mxGeometry x="310" y="230" width="20" height="20" as="geometry" />
        </mxCell>
        <mxCell id="ViMQYmPjHWnvlr-54FI5-84" value="&lt;font style=&quot;font-size: 9px;&quot; face=&quot;Comic Sans MS&quot;&gt;I&lt;sub&gt;n&lt;/sub&gt;&lt;/font&gt;" style="whiteSpace=wrap;html=1;aspect=fixed;fillColor=#1ba1e2;fontColor=#ffffff;strokeColor=#006EAF;" parent="1" vertex="1">
          <mxGeometry x="430" y="230" width="20" height="20" as="geometry" />
        </mxCell>
        <mxCell id="ViMQYmPjHWnvlr-54FI5-85" value="&lt;font style=&quot;font-size: 9px;&quot; face=&quot;Comic Sans MS&quot;&gt;I&lt;sub&gt;n-1&lt;/sub&gt;&lt;/font&gt;" style="whiteSpace=wrap;html=1;aspect=fixed;fillColor=#1ba1e2;fontColor=#ffffff;strokeColor=#006EAF;" parent="1" vertex="1">
          <mxGeometry x="400" y="230" width="20" height="20" as="geometry" />
        </mxCell>
        <mxCell id="ViMQYmPjHWnvlr-54FI5-86" value="&lt;font style=&quot;font-size: 9px;&quot; face=&quot;Comic Sans MS&quot;&gt;I&lt;sub&gt;n-2&lt;/sub&gt;&lt;/font&gt;" style="whiteSpace=wrap;html=1;aspect=fixed;fillColor=#1ba1e2;fontColor=#ffffff;strokeColor=#006EAF;" parent="1" vertex="1">
          <mxGeometry x="370" y="230" width="20" height="20" as="geometry" />
        </mxCell>
        <mxCell id="ViMQYmPjHWnvlr-54FI5-87" value="&lt;font style=&quot;font-size: 9px;&quot; face=&quot;Comic Sans MS&quot;&gt;I&lt;sub&gt;N&lt;/sub&gt;&lt;/font&gt;" style="whiteSpace=wrap;html=1;aspect=fixed;fillColor=#1ba1e2;fontColor=#ffffff;strokeColor=#006EAF;" parent="1" vertex="1">
          <mxGeometry x="550" y="230" width="20" height="20" as="geometry" />
        </mxCell>
        <mxCell id="ViMQYmPjHWnvlr-54FI5-99" value="&lt;font face=&quot;Comic Sans MS&quot;&gt;individual 1&#39;&lt;/font&gt;" style="text;html=1;align=center;verticalAlign=middle;resizable=0;points=[];autosize=1;strokeColor=none;fillColor=none;" parent="1" vertex="1">
          <mxGeometry x="185" y="395" width="90" height="30" as="geometry" />
        </mxCell>
        <mxCell id="ViMQYmPjHWnvlr-54FI5-103" value="&lt;font face=&quot;Comic Sans MS&quot;&gt;individual 2&#39;&lt;/font&gt;" style="text;html=1;align=center;verticalAlign=middle;resizable=0;points=[];autosize=1;strokeColor=none;fillColor=none;" parent="1" vertex="1">
          <mxGeometry x="185" y="455" width="90" height="30" as="geometry" />
        </mxCell>
        <mxCell id="XFDBpryUwOy2tn31j2u2-1" value="&lt;font style=&quot;font-size: 9px;&quot; face=&quot;Comic Sans MS&quot;&gt;I&lt;sub&gt;n+2&lt;/sub&gt;&lt;/font&gt;" style="whiteSpace=wrap;html=1;aspect=fixed;fillColor=#1ba1e2;fontColor=#ffffff;strokeColor=#006EAF;" vertex="1" parent="1">
          <mxGeometry x="490" y="230" width="20" height="20" as="geometry" />
        </mxCell>
        <mxCell id="XFDBpryUwOy2tn31j2u2-3" value="&lt;font style=&quot;font-size: 9px;&quot; face=&quot;Comic Sans MS&quot;&gt;I&lt;sub&gt;n+1&lt;/sub&gt;&lt;/font&gt;" style="whiteSpace=wrap;html=1;aspect=fixed;fillColor=#1ba1e2;fontColor=#ffffff;strokeColor=#006EAF;" vertex="1" parent="1">
          <mxGeometry x="460" y="230" width="20" height="20" as="geometry" />
        </mxCell>
        <mxCell id="XFDBpryUwOy2tn31j2u2-6" value="&lt;font face=&quot;Comic Sans MS&quot;&gt;end point&lt;/font&gt;" style="text;html=1;align=center;verticalAlign=middle;resizable=0;points=[];autosize=1;strokeColor=none;fillColor=none;" vertex="1" parent="1">
          <mxGeometry x="458" y="190" width="80" height="30" as="geometry" />
        </mxCell>
        <mxCell id="XFDBpryUwOy2tn31j2u2-7" value="" style="endArrow=classic;html=1;rounded=0;exitX=0.076;exitY=0.066;exitDx=0;exitDy=0;exitPerimeter=0;" edge="1" parent="1">
          <mxGeometry width="50" height="50" relative="1" as="geometry">
            <mxPoint x="469.7899999999999" y="191.97999999999996" as="sourcePoint" />
            <mxPoint x="469.71" y="230" as="targetPoint" />
          </mxGeometry>
        </mxCell>
        <mxCell id="XFDBpryUwOy2tn31j2u2-9" value="" style="rounded=0;whiteSpace=wrap;html=1;fillColor=#f8cecc;strokeColor=#b85450;" vertex="1" parent="1">
          <mxGeometry x="270" y="280" width="310" height="40" as="geometry" />
        </mxCell>
        <mxCell id="XFDBpryUwOy2tn31j2u2-10" value="&lt;font style=&quot;font-size: 9px;&quot; face=&quot;Comic Sans MS&quot;&gt;I&lt;sub&gt;1&lt;/sub&gt;&lt;/font&gt;" style="whiteSpace=wrap;html=1;aspect=fixed;fillColor=#d80073;fontColor=#ffffff;strokeColor=#A50040;" vertex="1" parent="1">
          <mxGeometry x="280" y="290" width="20" height="20" as="geometry" />
        </mxCell>
        <mxCell id="XFDBpryUwOy2tn31j2u2-11" value="" style="endArrow=none;dashed=1;html=1;dashPattern=1 3;strokeWidth=2;rounded=0;" edge="1" parent="1">
          <mxGeometry width="50" height="50" relative="1" as="geometry">
            <mxPoint x="340" y="299.8" as="sourcePoint" />
            <mxPoint x="360" y="299.8" as="targetPoint" />
          </mxGeometry>
        </mxCell>
        <mxCell id="XFDBpryUwOy2tn31j2u2-12" value="" style="endArrow=none;dashed=1;html=1;dashPattern=1 3;strokeWidth=2;rounded=0;" edge="1" parent="1">
          <mxGeometry width="50" height="50" relative="1" as="geometry">
            <mxPoint x="521" y="299.88" as="sourcePoint" />
            <mxPoint x="541" y="299.88" as="targetPoint" />
          </mxGeometry>
        </mxCell>
        <mxCell id="XFDBpryUwOy2tn31j2u2-13" value="&lt;font style=&quot;font-size: 9px;&quot; face=&quot;Comic Sans MS&quot;&gt;I&lt;sub&gt;2&lt;/sub&gt;&lt;/font&gt;" style="whiteSpace=wrap;html=1;aspect=fixed;fillColor=#d80073;fontColor=#ffffff;strokeColor=#A50040;" vertex="1" parent="1">
          <mxGeometry x="310" y="290" width="20" height="20" as="geometry" />
        </mxCell>
        <mxCell id="XFDBpryUwOy2tn31j2u2-14" value="&lt;font style=&quot;font-size: 9px;&quot; face=&quot;Comic Sans MS&quot;&gt;I&lt;sub&gt;n&lt;/sub&gt;&lt;/font&gt;" style="whiteSpace=wrap;html=1;aspect=fixed;fillColor=#d80073;fontColor=#ffffff;strokeColor=#A50040;" vertex="1" parent="1">
          <mxGeometry x="430" y="290" width="20" height="20" as="geometry" />
        </mxCell>
        <mxCell id="XFDBpryUwOy2tn31j2u2-15" value="&lt;font style=&quot;font-size: 9px;&quot; face=&quot;Comic Sans MS&quot;&gt;I&lt;sub&gt;n-1&lt;/sub&gt;&lt;/font&gt;" style="whiteSpace=wrap;html=1;aspect=fixed;fillColor=#d80073;fontColor=#ffffff;strokeColor=#A50040;" vertex="1" parent="1">
          <mxGeometry x="400" y="290" width="20" height="20" as="geometry" />
        </mxCell>
        <mxCell id="XFDBpryUwOy2tn31j2u2-16" value="&lt;font style=&quot;font-size: 9px;&quot; face=&quot;Comic Sans MS&quot;&gt;I&lt;sub&gt;n-2&lt;/sub&gt;&lt;/font&gt;" style="whiteSpace=wrap;html=1;aspect=fixed;fillColor=#d80073;fontColor=#ffffff;strokeColor=#A50040;" vertex="1" parent="1">
          <mxGeometry x="370" y="290" width="20" height="20" as="geometry" />
        </mxCell>
        <mxCell id="XFDBpryUwOy2tn31j2u2-17" value="&lt;font style=&quot;font-size: 9px;&quot; face=&quot;Comic Sans MS&quot;&gt;I&lt;sub&gt;N&lt;/sub&gt;&lt;/font&gt;" style="whiteSpace=wrap;html=1;aspect=fixed;fillColor=#d80073;fontColor=#ffffff;strokeColor=#A50040;" vertex="1" parent="1">
          <mxGeometry x="550" y="290" width="20" height="20" as="geometry" />
        </mxCell>
        <mxCell id="XFDBpryUwOy2tn31j2u2-18" value="&lt;font style=&quot;font-size: 9px;&quot; face=&quot;Comic Sans MS&quot;&gt;I&lt;sub&gt;n+2&lt;/sub&gt;&lt;/font&gt;" style="whiteSpace=wrap;html=1;aspect=fixed;fillColor=#d80073;fontColor=#ffffff;strokeColor=#A50040;" vertex="1" parent="1">
          <mxGeometry x="490" y="290" width="20" height="20" as="geometry" />
        </mxCell>
        <mxCell id="XFDBpryUwOy2tn31j2u2-19" value="&lt;font style=&quot;font-size: 9px;&quot; face=&quot;Comic Sans MS&quot;&gt;I&lt;sub&gt;n+1&lt;/sub&gt;&lt;/font&gt;" style="whiteSpace=wrap;html=1;aspect=fixed;fillColor=#d80073;fontColor=#ffffff;strokeColor=#A50040;" vertex="1" parent="1">
          <mxGeometry x="460" y="290" width="20" height="20" as="geometry" />
        </mxCell>
        <mxCell id="XFDBpryUwOy2tn31j2u2-20" value="" style="rounded=0;whiteSpace=wrap;html=1;fillColor=#dae8fc;strokeColor=#6c8ebf;" vertex="1" parent="1">
          <mxGeometry x="270" y="391" width="310" height="40" as="geometry" />
        </mxCell>
        <mxCell id="XFDBpryUwOy2tn31j2u2-21" value="&lt;font style=&quot;font-size: 9px;&quot; face=&quot;Comic Sans MS&quot;&gt;I&lt;sub&gt;1&lt;/sub&gt;&lt;/font&gt;" style="whiteSpace=wrap;html=1;aspect=fixed;fillColor=#1ba1e2;fontColor=#ffffff;strokeColor=#006EAF;" vertex="1" parent="1">
          <mxGeometry x="280" y="401" width="20" height="20" as="geometry" />
        </mxCell>
        <mxCell id="XFDBpryUwOy2tn31j2u2-22" value="" style="endArrow=none;dashed=1;html=1;dashPattern=1 3;strokeWidth=2;rounded=0;" edge="1" parent="1">
          <mxGeometry width="50" height="50" relative="1" as="geometry">
            <mxPoint x="340" y="410.8" as="sourcePoint" />
            <mxPoint x="360" y="410.8" as="targetPoint" />
          </mxGeometry>
        </mxCell>
        <mxCell id="XFDBpryUwOy2tn31j2u2-23" value="" style="endArrow=none;dashed=1;html=1;dashPattern=1 3;strokeWidth=2;rounded=0;" edge="1" parent="1">
          <mxGeometry width="50" height="50" relative="1" as="geometry">
            <mxPoint x="521" y="410.88" as="sourcePoint" />
            <mxPoint x="541" y="410.88" as="targetPoint" />
          </mxGeometry>
        </mxCell>
        <mxCell id="XFDBpryUwOy2tn31j2u2-24" value="&lt;font style=&quot;font-size: 9px;&quot; face=&quot;Comic Sans MS&quot;&gt;I&lt;sub&gt;2&lt;/sub&gt;&lt;/font&gt;" style="whiteSpace=wrap;html=1;aspect=fixed;fillColor=#1ba1e2;fontColor=#ffffff;strokeColor=#006EAF;" vertex="1" parent="1">
          <mxGeometry x="310" y="401" width="20" height="20" as="geometry" />
        </mxCell>
        <mxCell id="XFDBpryUwOy2tn31j2u2-27" value="&lt;font style=&quot;font-size: 9px;&quot; face=&quot;Comic Sans MS&quot;&gt;I&lt;sub&gt;n-2&lt;/sub&gt;&lt;/font&gt;" style="whiteSpace=wrap;html=1;aspect=fixed;fillColor=#1ba1e2;fontColor=#ffffff;strokeColor=#006EAF;" vertex="1" parent="1">
          <mxGeometry x="370" y="401" width="20" height="20" as="geometry" />
        </mxCell>
        <mxCell id="XFDBpryUwOy2tn31j2u2-28" value="&lt;font style=&quot;font-size: 9px;&quot; face=&quot;Comic Sans MS&quot;&gt;I&lt;sub&gt;N&lt;/sub&gt;&lt;/font&gt;" style="whiteSpace=wrap;html=1;aspect=fixed;fillColor=#1ba1e2;fontColor=#ffffff;strokeColor=#006EAF;" vertex="1" parent="1">
          <mxGeometry x="550" y="401" width="20" height="20" as="geometry" />
        </mxCell>
        <mxCell id="XFDBpryUwOy2tn31j2u2-29" value="&lt;font style=&quot;font-size: 9px;&quot; face=&quot;Comic Sans MS&quot;&gt;I&lt;sub&gt;n+2&lt;/sub&gt;&lt;/font&gt;" style="whiteSpace=wrap;html=1;aspect=fixed;fillColor=#1ba1e2;fontColor=#ffffff;strokeColor=#006EAF;" vertex="1" parent="1">
          <mxGeometry x="490" y="401" width="20" height="20" as="geometry" />
        </mxCell>
        <mxCell id="XFDBpryUwOy2tn31j2u2-31" value="" style="rounded=0;whiteSpace=wrap;html=1;fillColor=#f8cecc;strokeColor=#b85450;" vertex="1" parent="1">
          <mxGeometry x="270" y="451" width="310" height="40" as="geometry" />
        </mxCell>
        <mxCell id="XFDBpryUwOy2tn31j2u2-32" value="&lt;font style=&quot;font-size: 9px;&quot; face=&quot;Comic Sans MS&quot;&gt;I&lt;sub&gt;1&lt;/sub&gt;&lt;/font&gt;" style="whiteSpace=wrap;html=1;aspect=fixed;fillColor=#d80073;fontColor=#ffffff;strokeColor=#A50040;" vertex="1" parent="1">
          <mxGeometry x="280" y="461" width="20" height="20" as="geometry" />
        </mxCell>
        <mxCell id="XFDBpryUwOy2tn31j2u2-33" value="" style="endArrow=none;dashed=1;html=1;dashPattern=1 3;strokeWidth=2;rounded=0;" edge="1" parent="1">
          <mxGeometry width="50" height="50" relative="1" as="geometry">
            <mxPoint x="340" y="470.8" as="sourcePoint" />
            <mxPoint x="360" y="470.8" as="targetPoint" />
          </mxGeometry>
        </mxCell>
        <mxCell id="XFDBpryUwOy2tn31j2u2-34" value="" style="endArrow=none;dashed=1;html=1;dashPattern=1 3;strokeWidth=2;rounded=0;" edge="1" parent="1">
          <mxGeometry width="50" height="50" relative="1" as="geometry">
            <mxPoint x="521" y="470.88" as="sourcePoint" />
            <mxPoint x="541" y="470.88" as="targetPoint" />
          </mxGeometry>
        </mxCell>
        <mxCell id="XFDBpryUwOy2tn31j2u2-35" value="&lt;font style=&quot;font-size: 9px;&quot; face=&quot;Comic Sans MS&quot;&gt;I&lt;sub&gt;2&lt;/sub&gt;&lt;/font&gt;" style="whiteSpace=wrap;html=1;aspect=fixed;fillColor=#d80073;fontColor=#ffffff;strokeColor=#A50040;" vertex="1" parent="1">
          <mxGeometry x="310" y="461" width="20" height="20" as="geometry" />
        </mxCell>
        <mxCell id="XFDBpryUwOy2tn31j2u2-36" value="&lt;font style=&quot;font-size: 9px;&quot; face=&quot;Comic Sans MS&quot;&gt;I&lt;sub&gt;n&lt;/sub&gt;&lt;/font&gt;" style="whiteSpace=wrap;html=1;aspect=fixed;fillColor=#d80073;fontColor=#ffffff;strokeColor=#A50040;" vertex="1" parent="1">
          <mxGeometry x="430" y="401" width="20" height="20" as="geometry" />
        </mxCell>
        <mxCell id="XFDBpryUwOy2tn31j2u2-37" value="&lt;font style=&quot;font-size: 9px;&quot; face=&quot;Comic Sans MS&quot;&gt;I&lt;sub&gt;n-1&lt;/sub&gt;&lt;/font&gt;" style="whiteSpace=wrap;html=1;aspect=fixed;fillColor=#d80073;fontColor=#ffffff;strokeColor=#A50040;" vertex="1" parent="1">
          <mxGeometry x="400" y="401" width="20" height="20" as="geometry" />
        </mxCell>
        <mxCell id="XFDBpryUwOy2tn31j2u2-38" value="&lt;font style=&quot;font-size: 9px;&quot; face=&quot;Comic Sans MS&quot;&gt;I&lt;sub&gt;n-2&lt;/sub&gt;&lt;/font&gt;" style="whiteSpace=wrap;html=1;aspect=fixed;fillColor=#d80073;fontColor=#ffffff;strokeColor=#A50040;" vertex="1" parent="1">
          <mxGeometry x="370" y="461" width="20" height="20" as="geometry" />
        </mxCell>
        <mxCell id="XFDBpryUwOy2tn31j2u2-39" value="&lt;font style=&quot;font-size: 9px;&quot; face=&quot;Comic Sans MS&quot;&gt;I&lt;sub&gt;N&lt;/sub&gt;&lt;/font&gt;" style="whiteSpace=wrap;html=1;aspect=fixed;fillColor=#d80073;fontColor=#ffffff;strokeColor=#A50040;" vertex="1" parent="1">
          <mxGeometry x="550" y="461" width="20" height="20" as="geometry" />
        </mxCell>
        <mxCell id="XFDBpryUwOy2tn31j2u2-40" value="&lt;font style=&quot;font-size: 9px;&quot; face=&quot;Comic Sans MS&quot;&gt;I&lt;sub&gt;n+2&lt;/sub&gt;&lt;/font&gt;" style="whiteSpace=wrap;html=1;aspect=fixed;fillColor=#d80073;fontColor=#ffffff;strokeColor=#A50040;" vertex="1" parent="1">
          <mxGeometry x="490" y="461" width="20" height="20" as="geometry" />
        </mxCell>
        <mxCell id="XFDBpryUwOy2tn31j2u2-41" value="&lt;font style=&quot;font-size: 9px;&quot; face=&quot;Comic Sans MS&quot;&gt;I&lt;sub&gt;n+1&lt;/sub&gt;&lt;/font&gt;" style="whiteSpace=wrap;html=1;aspect=fixed;fillColor=#d80073;fontColor=#ffffff;strokeColor=#A50040;" vertex="1" parent="1">
          <mxGeometry x="460" y="401" width="20" height="20" as="geometry" />
        </mxCell>
        <mxCell id="XFDBpryUwOy2tn31j2u2-42" value="&lt;font style=&quot;font-size: 9px;&quot; face=&quot;Comic Sans MS&quot;&gt;I&lt;sub&gt;n&lt;/sub&gt;&lt;/font&gt;" style="whiteSpace=wrap;html=1;aspect=fixed;fillColor=#1ba1e2;fontColor=#ffffff;strokeColor=#006EAF;" vertex="1" parent="1">
          <mxGeometry x="430" y="461" width="20" height="20" as="geometry" />
        </mxCell>
        <mxCell id="XFDBpryUwOy2tn31j2u2-43" value="&lt;font style=&quot;font-size: 9px;&quot; face=&quot;Comic Sans MS&quot;&gt;I&lt;sub&gt;n-1&lt;/sub&gt;&lt;/font&gt;" style="whiteSpace=wrap;html=1;aspect=fixed;fillColor=#1ba1e2;fontColor=#ffffff;strokeColor=#006EAF;" vertex="1" parent="1">
          <mxGeometry x="400" y="461" width="20" height="20" as="geometry" />
        </mxCell>
        <mxCell id="XFDBpryUwOy2tn31j2u2-44" value="&lt;font style=&quot;font-size: 9px;&quot; face=&quot;Comic Sans MS&quot;&gt;I&lt;sub&gt;n+1&lt;/sub&gt;&lt;/font&gt;" style="whiteSpace=wrap;html=1;aspect=fixed;fillColor=#1ba1e2;fontColor=#ffffff;strokeColor=#006EAF;" vertex="1" parent="1">
          <mxGeometry x="460" y="461" width="20" height="20" as="geometry" />
        </mxCell>
      </root>
    </mxGraphModel>
  </diagram>
</mxfile>
